#!OML:ASF I:\golf\golf\golf 2\Subject 1\2002-09-07\Subject1.ASF
:FULLY-SPECIFIED
:DEGREES
20
root -4.12298 18.1148 -7.53679 6.85723 5.40714 -5.66937
lowerback -5.11232 0.362777 -0.730671
upperback -0.67682 0.427849 4.35498
thorax 2.13232 0.195546 4.95004
lowerneck -21.0581 -2.48272 -0.648553
upperneck 19.2989 -2.70394 -2.19343
head 9.55387 -1.56369 -1.04111
rclavicle 8.77137e-015 3.06128e-014
rhumerus -27.3121 -14.1676 -77.2602
rradius 24.434
rwrist -8.68209
rhand -21.6418 12.6104
rfingers 7.12502
rthumb 4.75463 -17.3162
lclavicle 8.77137e-015 3.06128e-014
lhumerus -29.5157 7.21221 84.0044
lradius 28.7344
lwrist 5.96509
lhand -10.1734 33.0659
lfingers 7.12502
lthumb 15.8167 62.4398
rfemur -10.0253 1.70846 26.3946
rtibia 21.6681
rfoot -13.3997 -6.82732
rtoes 6.52653
lfemur -10.6581 0.768644 -9.5215
ltibia 24.7463
lfoot -14.3386 5.04903
ltoes -14.948
21
root -4.1216 18.1113 -7.52992 6.69335 5.36112 -5.67443
lowerback -5.06691 0.390669 -0.703619
upperback -0.59816 0.461421 4.3671
thorax 2.18514 0.210703 4.94987
lowerneck -21.0194 -2.50037 -0.67684
upperneck 19.3175 -2.70985 -2.23486
head 9.5533 -1.57344 -1.0514
rclavicle 2.38542e-015 3.45885e-014
rhumerus -27.1875 -14.0145 -77.2847
rradius 24.406
rwrist -8.76785
rhand -21.6289 12.7021
rfingers 7.12502
rthumb 4.76709 -17.2243
lclavicle 2.38542e-015 3.45885e-014
lhumerus -29.5149 7.52374 83.9293
lradius 28.3958
lwrist 5.74283
lhand -10.2625 32.9367
lfingers 7.12502
lthumb 15.7308 62.3174
rfemur -9.78601 1.75636 26.4027
rtibia 21.603
rfoot -13.3999 -6.83773
rtoes 6.52792
lfemur -10.4315 0.790312 -9.51861
ltibia 24.7404
lfoot -14.4479 5.00012
ltoes -14.222
22
root -4.12047 18.1094 -7.5265 6.64589 5.35389 -5.7002
lowerback -5.09277 0.401795 -0.66225
upperback -0.558926 0.471817 4.38394
thorax 2.23942 0.214902 4.94557
lowerneck -20.9968 -2.48238 -0.714462
upperneck 19.3334 -2.67143 -2.24175
head 9.55587 -1.55923 -1.04212
rclavicle 1.41634e-015 -4.17448e-014
rhumerus -27.0533 -13.8759 -77.3073
rradius 24.3925
rwrist -8.8822
rhand -21.6145 12.8383
rfingers 7.12502
rthumb 4.78098 -17.0878
lclavicle 1.41634e-015 -4.17448e-014
lhumerus -29.5272 7.76304 83.8448
lradius 28.1025
lwrist 5.49073
lhand -10.39 33.4023
lfingers 7.12502
lthumb 15.608 62.7926
rfemur -9.70993 1.8034 26.4312
rtibia 21.5765
rfoot -13.3896 -6.87986
rtoes 6.89773
lfemur -10.3733 0.817543 -9.50003
ltibia 24.7254
lfoot -14.4437 5.02825
ltoes -14.3904
23
root -4.12078 18.1098 -7.52534 6.66066 5.39394 -5.70432
lowerback -5.10286 0.418414 -0.646966
upperback -0.577116 0.494226 4.35957
thorax 2.22458 0.226825 4.91268
lowerneck -20.999 -2.44331 -0.715759
upperneck 19.4436 -2.63326 -2.16791
head 9.59657 -1.53304 -1.01251
rclavicle 7.70291e-015 4.37326e-015
rhumerus -26.9999 -14.0059 -77.3114
rradius 24.387
rwrist -8.79968
rhand -21.6519 12.8735
rfingers 7.12502
rthumb 4.74494 -17.0533
lclavicle 7.70291e-015 4.37326e-015
lhumerus -29.5556 7.85585 83.7225
lradius 27.7703
lwrist 5.35367
lhand -10.6401 33.5068
lfingers 7.12502
lthumb 15.3672 62.9158
rfemur -9.72206 1.81734 26.4435
rtibia 21.5803
rfoot -13.4054 -6.96036
rtoes 6.80812
lfemur -10.3999 0.826696 -9.49467
ltibia 24.7035
lfoot -14.3846 5.0092
ltoes -14.4607
24
root -4.12038 18.1105 -7.52491 6.70999 5.40389 -5.69252
lowerback -5.12768 0.434994 -0.636857
upperback -0.605089 0.51699 4.33225
thorax 2.20788 0.239027 4.87979
lowerneck -21.0165 -2.39693 -0.651143
upperneck 19.5635 -2.58149 -2.1957
head 9.64109 -1.50769 -1.02752
rclavicle 1.81143e-014 -3.4191e-014
rhumerus -26.9647 -14.122 -77.3304
rradius 24.4357
rwrist -8.6991
rhand -21.7091 12.8202
rfingers 7.12502
rthumb 4.68964 -17.1078
lclavicle 1.81143e-014 -3.4191e-014
lhumerus -29.6031 8.06993 83.577
lradius 27.4702
lwrist 5.12837
lhand -10.7262 33.5141
lfingers 7.12502
lthumb 15.2843 62.9294
rfemur -9.77421 1.80057 26.4326
rtibia 21.5868
rfoot -13.4052 -6.98393
rtoes 6.1137
lfemur -10.4556 0.835347 -9.50998
ltibia 24.6953
lfoot -14.3679 4.98517
ltoes -14.0396
25
root -4.12008 18.1106 -7.5253 6.76772 5.42717 -5.67643
lowerback -5.1662 0.412187 -0.671422
upperback -0.622737 0.487759 4.3607
thorax 2.21334 0.224157 4.92782
lowerneck -21.012 -2.34338 -0.60295
upperneck 19.6014 -2.48786 -2.33935
head 9.65206 -1.47786 -1.07277
rclavicle -1.90833e-014 -8.74653e-015
rhumerus -26.9068 -13.9999 -77.3445
rradius 24.5413
rwrist -8.69831
rhand -21.7276 12.8166
rfingers 7.12502
rthumb 4.67183 -17.1119
lclavicle -1.90833e-014 -8.74653e-015
lhumerus -29.6693 8.41423 83.4727
lradius 27.1855
lwrist 4.86452
lhand -10.8153 33.5051
lfingers 7.12502
lthumb 15.1984 62.9269
rfemur -9.82521 1.76743 26.4221
rtibia 21.5735
rfoot -13.3736 -6.97354
rtoes 6.13705
lfemur -10.545 0.862832 -9.52617
ltibia 24.7284
lfoot -14.3368 4.9795
ltoes -14.3472
26
root -4.12045 18.1096 -7.526 6.78249 5.48186 -5.69779
lowerback -5.15801 0.381343 -0.679732
upperback -0.626359 0.44635 4.4023
thorax 2.20839 0.203339 4.9733
lowerneck -21.0049 -2.30058 -0.61729
upperneck 19.635 -2.41024 -2.39492
head 9.66318 -1.44969 -1.07924
rclavicle 8.57259e-015 5.1684e-014
rhumerus -26.842 -13.7814 -77.3884
rradius 24.6429
rwrist -8.8177
rhand -21.8397 12.835
rfingers 7.12502
rthumb 4.56357 -17.0958
lclavicle 8.57259e-015 5.1684e-014
lhumerus -29.7133 8.64795 83.3855
lradius 26.886
lwrist 4.72004
lhand -10.8816 33.2707
lfingers 7.12502
lthumb 15.1346 62.6973
rfemur -9.83104 1.75442 26.4566
rtibia 21.5498
rfoot -13.3575 -6.97156
rtoes 6.98792
lfemur -10.6109 0.863453 -9.49354
ltibia 24.7911
lfoot -14.3061 4.96712
ltoes -15.0085
27
root -4.11883 18.109 -7.52641 6.75076 5.53767 -5.73086
lowerback -5.11845 0.389489 -0.601504
upperback -0.606142 0.453186 4.38826
thorax 2.20719 0.207244 4.91399
lowerneck -21.0461 -2.29819 -0.610838
upperneck 19.7719 -2.41084 -2.37727
head 9.71917 -1.44781 -1.07695
rclavicle -2.67365e-014 -4.77083e-015
rhumerus -26.8097 -13.6688 -77.4757
rradius 24.7892
rwrist -9.00831
rhand -22.0029 12.8456
rfingers 7.12502
rthumb 4.40597 -17.0886
lclavicle -2.67365e-014 -4.77083e-015
lhumerus -29.7379 8.69798 83.2848
lradius 26.6249
lwrist 4.65026
lhand -10.7325 33.1531
lfingers 7.12502
lthumb 15.2782 62.5688
rfemur -9.78678 1.69169 26.4961
rtibia 21.5197
rfoot -13.3402 -6.98193
rtoes 6.96594
lfemur -10.6264 0.797389 -9.46065
ltibia 24.8656
lfoot -14.3381 4.95745
ltoes -14.6433
28
root -4.11561 18.1104 -7.52692 6.76978 5.56586 -5.68377
lowerback -5.15354 0.412939 -0.629939
upperback -0.594497 0.485582 4.36872
thorax 2.23588 0.222741 4.91259
lowerneck -20.9919 -2.3192 -0.560982
upperneck 19.8358 -2.43861 -2.44895
head 9.72993 -1.46542 -1.11426
rclavicle 1.62258e-014 1.94809e-014
rhumerus -26.7998 -13.5828 -77.5061
rradius 24.9568
rwrist -9.17881
rhand -21.9954 12.7321
rfingers 7.12502
rthumb 4.41319 -17.2019
lclavicle 1.62258e-014 1.94809e-014
lhumerus -29.7587 8.8634 83.1822
lradius 26.302
lwrist 4.45881
lhand -10.6928 33.1871
lfingers 7.12502
lthumb 15.3164 62.5999
rfemur -9.79328 1.59526 26.4386
rtibia 21.4799
rfoot -13.3171 -6.97214
rtoes 6.47639
lfemur -10.6903 0.729313 -9.53099
ltibia 24.9565
lfoot -14.4236 4.98197
ltoes -14.185
29
root -4.11376 18.1111 -7.52778 6.82067 5.59271 -5.61762
lowerback -5.25499 0.413105 -0.774568
upperback -0.558242 0.490459 4.39885
thorax 2.32829 0.221916 5.02933
lowerneck -20.9475 -2.31888 -0.54835
upperneck 19.8367 -2.41986 -2.54353
head 9.72108 -1.46697 -1.14605
rclavicle -1.21507e-014 -1.82882e-014
rhumerus -26.7018 -13.4397 -77.5004
rradius 25.079
rwrist -9.27898
rhand -21.907 12.5773
rfingers 7.12502
rthumb 4.49858 -17.3549
lclavicle -1.21507e-014 -1.82882e-014
lhumerus -29.7155 9.25037 83.0799
lradius 25.9366
lwrist 4.08903
lhand -11.0274 33.1568
lfingers 7.12502
lthumb 14.9941 62.594
rfemur -9.83053 1.53942 26.3674
rtibia 21.4347
rfoot -13.3288 -6.98584
rtoes 6.09197
lfemur -10.8054 0.743386 -9.61057
ltibia 25.0572
lfoot -14.4804 4.96282
ltoes -14.5525
30
root -4.11269 18.1099 -7.52933 6.8292 5.63062 -5.59725
lowerback -5.26233 0.418705 -0.82555
upperback -0.555253 0.500226 4.42082
thorax 2.33397 0.22614 5.08244
lowerneck -20.939 -2.32523 -0.630488
upperneck 19.9858 -2.39525 -2.56399
head 9.7739 -1.46479 -1.13851
rclavicle -2.49475e-014 -2.98177e-014
rhumerus -26.6732 -13.3328 -77.4889
rradius 25.1816
rwrist -9.34646
rhand -21.9317 12.616
rfingers 7.12502
rthumb 4.47472 -17.3167
lclavicle -2.49475e-014 -2.98177e-014
lhumerus -29.7483 9.6077 82.9555
lradius 25.6057
lwrist 3.67782
lhand -11.778 33.2171
lfingers 7.12502
lthumb 14.2709 62.7067
rfemur -9.82463 1.53035 26.3497
rtibia 21.3993
rfoot -13.3246 -7.0345
rtoes 5.74947
lfemur -10.8872 0.794949 -9.63231
ltibia 25.1541
lfoot -14.4596 4.92408
ltoes -14.9868
31
root -4.11065 18.1101 -7.53044 6.83571 5.65611 -5.63815
lowerback -5.22286 0.455282 -0.726789
upperback -0.629599 0.54683 4.41633
thorax 2.23161 0.253043 5.0229
lowerneck -20.7264 -2.36072 -0.726995
upperneck 20.0944 -2.41418 -2.56921
head 9.77519 -1.48138 -1.12551
rclavicle -1.16289e-014 1.07344e-014
rhumerus -26.8048 -13.318 -77.4366
rradius 25.2581
rwrist -9.37188
rhand -21.9686 12.644
rfingers 7.12502
rthumb 4.43908 -17.2895
lclavicle -1.16289e-014 1.07344e-014
lhumerus -29.9012 9.96137 82.7473
lradius 25.2345
lwrist 3.13558
lhand -12.1577 33.3345
lfingers 7.12502
lthumb 13.905 62.8496
rfemur -9.82855 1.54713 26.3863
rtibia 21.3765
rfoot -13.2808 -7.05113
rtoes 5.96762
lfemur -10.9678 0.797414 -9.594
ltibia 25.2531
lfoot -14.4638 4.87527
ltoes -14.0084
